<?xml version="1.0" encoding="utf-8"?>
<!-- Generator: Adobe Illustrator 22.0.1, SVG Export Plug-In . SVG Version: 6.00 Build 0)  -->
<svg version="1.1" id="Layer_1" xmlns="http://www.w3.org/2000/svg" xmlns:xlink="http://www.w3.org/1999/xlink" x="0px" y="0px"
	 viewBox="0 0 710.9 715.9" style="enable-background:new 0 0 710.9 715.9;" xml:space="preserve">
<style type="text/css">
	.st0{fill:#F9BD19;}
	.st1{fill:#F4861E;}
	.st2{fill:#463C4B;}
	.st3{fill:#555A6E;}
	.st4{fill:#EFE0CC;}
	.st5{fill:#B8AE9A;}
	.st6{fill:#9A907D;}
	.st7{fill:none;stroke:#000000;stroke-width:3;stroke-miterlimit:10;}
	.st8{fill:#FFFFFF;}
	.st9{fill:none;}
	.st10{fill:#030302;}
	.st11{fill:#89D14B;}
	.st12{fill:#E0924C;}
	.st13{fill:#FB6C83;}
	.st14{fill:#74D7F8;}
	.st15{fill:#A47353;}
	.st16{fill:#744D34;}
	.st17{fill:#010101;}
	.st18{fill:#73D6F8;}
	.st19{fill:#F4C951;}
	.st20{fill:#F5627B;}
	.st21{fill:#8AD24D;}
	.st22{fill:#A47352;}
	.st23{fill:#7E7E7F;}
	.st24{fill:#585A5C;}
	.st25{fill:#EEC2AA;}
	.st26{fill:#D4A07E;}
</style>
<g>
	<path class="st8" d="M355,1C212.3,1,89.2,84.7,32.1,205.6l9.1,4l9.3,4.1c16.5-34.9,38.8-66.5,66.3-94c31-31,67-55.3,107.1-72.2
		C265.4,29.9,309.5,21,355,21s89.6,8.9,131.2,26.5c32.8,13.9,62.9,32.7,89.7,56l7-7.1l7.1-7.1C527.2,34.3,445,1,355,1z"/>
	<path class="st8" d="M630.3,130.7l-7.1,7.1l-7.1,7.2c20.3,24.8,36.9,52.2,49.4,81.9C683.1,268.4,692,312.5,692,358
		c0,44.2-8.4,87.2-25.1,127.7l9.3,4.1l9.1,4C702.5,451.9,712,406.1,712,358C712,271.6,681.3,192.4,630.3,130.7z"/>
	<circle class="st8" cx="32" cy="237" r="12"/>
	<circle class="st8" cx="118" cy="607" r="12"/>
	<circle class="st8" cx="602" cy="120" r="12"/>
	<circle class="st8" cx="664" cy="520" r="12"/>
	<path class="st0" d="M519,329.6c-3,0-6,0.1-9,0c-2.1,0-3.2-1.2-3.3-3.2c0-0.4,0-0.8,0-1.2c0-47.7,0-95.3,0-143c4.1,0,8.2,0,12.3,0
		C519,231.4,519,280.5,519,329.6z"/>
	<path class="st1" d="M519,329.6c0-49.1,0-98.2,0-147.3c0.6,0,1.3-0.1,1.9-0.1c3.5,0,6.9,0.1,10.4,0.1c0,47.7,0,95.4,0,143.1
		c0,3.5-0.8,4.3-4.2,4.3C524.3,329.6,521.7,329.6,519,329.6z"/>
	<path class="st0" d="M571.2,262.1c3.1,0,6.1,0,9.2,0c0,22.5,0,45,0,67.5c-1.8,0-3.6,0.1-5.4,0.1c-2.8,0-3.8-1.1-3.8-3.8
		c0-6.5,0-13,0-19.6C571.2,291.6,571.2,276.8,571.2,262.1z"/>
	<path class="st1" d="M580.4,329.6c0-22.5,0-45,0-67.5c3.1,0,6.2,0,9.2,0c0,21.1,0,42.3,0,63.4c0,3.2-0.9,4.1-4,4.1
		C583.9,329.6,582.1,329.6,580.4,329.6z"/>
	<path class="st0" d="M463.7,274.3c1.8,0.3,3,1.1,3,3.1c-2.4,0-4.7,0.1-7.1,0c-1.8-0.1-2.1,0.6-2.1,2.2c0.1,16.7,0,33.3,0,50
		c-2,0-4,0.1-5.9,0c-2.1,0-3.3-1.2-3.3-3.4c0-16.1,0-32.3,0-48.4c0-2.1,1.1-3.2,3.1-3.5c2.1,0,4.1,0,6.2,0
		C459.6,274.3,461.6,274.3,463.7,274.3z"/>
	<path class="st1" d="M457.5,329.6c0-16.7,0-33.3,0-50c0-1.6,0.3-2.3,2.1-2.2c2.4,0.2,4.7,0,7.1,0c0,9.2,0.1,18.4,0.1,27.6
		c0,7,0,14.1,0,21.1c0,2.4-1.1,3.5-3.5,3.5C461.4,329.7,459.5,329.6,457.5,329.6z"/>
	<path class="st8" d="M580.3,174.3c-0.9-9.4-8.7-16.6-18.2-16.7c-9.3-0.1-18.5,0-27.8-0.1c0-0.8,0-1.6,0-2.5c0-2.4-0.7-3.2-3.1-3.7
		c-3.5,0-6.9,0.1-10.4,0.1c-0.6,0-1.3-0.1-1.9-0.1c-4.1,0-8.2,0-12.3,0c-3.8,0.6-2.9,3.7-3.1,6.2c-0.9,0-1.6,0-2.3,0
		c-8.5,0-17-0.1-25.5,0c-7.9,0.1-14.8,5.1-17.3,12.6c-0.6,1.8-1.1,3.7-0.9,5.9c15.4,0,30.6,0,46,0c0.1,2.6-0.6,5.6,3.1,6.1
		c4.1,0,8.2,0,12.3,0c0.6,0,1.3-0.1,1.9-0.1l0,0c3.5,0,6.9,0.1,10.4,0.1c2.4-0.5,3.1-1.3,3.1-3.7c0-0.8,0-1.6,0-2.5
		c15.3,0,30.6,0,46,0C580.3,175.3,580.4,174.8,580.3,174.3z"/>
	<path class="st4" d="M568.1,243.6c-0.4,0-0.7,0.1-1.1,0.1c-2.7,0-5.4-0.1-8.1-0.1c0-12.2,0-24.4,0-36.7c0-3.7,2.6-6.3,6.2-6.3
		c2.4,0,4.9,0.1,7.3,0.1c-3.2,1.5-4.4,4-4.3,7.6C568.2,220.1,568.1,231.8,568.1,243.6z"/>
	<path class="st8" d="M481.3,242c-6.4-12.9-12.8-25.7-19.2-38.5c-1.5-2.9-4.2-3.6-7.1-2c-1,0.4-1.6,1.3-2,2.2
		c-6.3,12.6-12.7,25.3-19,37.9c-0.9,1.9-1.3,3.8-0.7,5.9c0.2,1.8,1,3.3,2.3,4.5c5.2,4.5,10.5,9,15.8,13.5c0-1.1,0-2.2,0-3.2
		c0.1-3,1.9-5.4,4.8-6.1c2.7-0.7,5.2,0.5,6.8,3.3c1.3,1.9,0.5,4.1,0.7,6.1c5.2-4.5,10.6-8.9,15.7-13.4
		C482.3,249.4,483,245.5,481.3,242z"/>
	<path class="st5" d="M583.5,243.6c-2,0-4.1,0-6.1,0c0-14.3,0-28.6,0-42.9c2.1,0,4.1,0,6.2,0C583.5,215,583.5,229.3,583.5,243.6z"/>
	<path class="st5" d="M592.7,243.6c-2,0-4.1,0-6.1,0c0-14.3,0-28.6,0-42.9c2.1,0,4.1,0,6.2,0C592.7,215,592.7,229.3,592.7,243.6z"/>
	<path class="st5" d="M568.1,243.6c0-11.8,0.1-23.5,0-35.3c0-3.5,1.1-6,4.3-7.6c0.6,0,1.3,0,1.9,0c0,14.3,0,28.6,0,42.9
		C572.2,243.6,570.1,243.6,568.1,243.6z"/>
	<path class="st5" d="M601.9,243.6c-2.1,0-4.1,0-6.2,0c0-14.3,0-28.6,0-42.9c3.7,0.1,6.1,2.6,6.2,6.4
		C601.9,219.2,601.9,231.4,601.9,243.6z"/>
	<path class="st8" d="M601.9,243.6c-2.1,0-4.1,0-6.2,0c-1,0-2.1,0-3.1,0c-2,0-4.1,0-6.1,0c-1,0-2.1,0-3.1,0c-2,0-4.1,0-6.1,0
		c-1,0-2.1,0-3.1,0c-2,0-4.1,0-6.1,0c-0.4,0-0.7,0.1-1.1,0.1c-0.2,0.1-0.4,0.2-0.5,0.3c-0.3,0.2-0.6,0.5-0.8,0.8s-0.4,0.6-0.5,1
		c0.1-0.3,0.3-0.7,0.5-1s0.5-0.6,0.8-0.8c0.2-0.1,0.3-0.2,0.5-0.3c-2.7,0-5.4-0.1-8.1-0.1c-2.2,0.4-3,1.3-3,3.2c0,4.1,0,8.2,0,12.2
		c0,1.9,1.2,3.1,3.1,3.1c2.7,0,5.3,0,8-0.1c1.4,0,2.8,0.1,4.2,0.1c3.1,0,6.1,0,9.2,0c3.1,0,6.2,0,9.2,0c3.9,0,7.8,0,11.7-0.1
		c2.5,0,3.6-1.1,3.6-3.6c0-3.7,0-7.4,0-11.1C605,245,604.3,244.2,601.9,243.6z"/>
	<path class="st6" d="M574.2,243.6c0-14.3,0-28.6,0-42.9c1,0,2,0,3,0c0,14.3,0,28.6,0,42.9C576.3,243.6,575.3,243.6,574.2,243.6z"/>
	<path class="st6" d="M586.5,200.7c0,14.3,0,28.6,0,42.9c-1,0-2.1,0-3.1,0c0-14.3,0-28.6,0-42.9
		C584.5,200.7,585.5,200.7,586.5,200.7z"/>
	<path class="st6" d="M595.8,200.7c0,14.3,0,28.6,0,42.9c-1,0-2.1,0-3.1,0c0-14.3,0-28.6,0-42.9
		C593.7,200.7,594.7,200.7,595.8,200.7z"/>
	<path class="st4" d="M457.5,274.3c-2.1,0-4.1,0-6.2,0c0-3,0-5.9,0-8.9c0-1.1,0-2.2,0-3.2c0.1-3,1.9-5.4,4.8-6.1
		c2.7-0.7,5.2,0.5,6.8,3.3c-0.2,0.1-0.3,0.2-0.5,0.2c-3.8-0.9-4.9,0-4.9,4C457.5,267.1,457.5,270.7,457.5,274.3z"/>
	<path class="st0" d="M519,151.4c-4.1,0-8.2,0-12.3,0c0-5.8,0.3-6.1,6-6.1c5,0,10,0,15,0c2.3,0,3.2,0.8,3.6,3.1c-2.9,0-5.9,0-8.8,0
		C520.3,148.4,519.4,149.2,519,151.4z"/>
	<path class="st5" d="M457.5,274.3c0-3.6,0-7.2,0-10.7c0-4,1.1-4.9,4.9-4c0.1,0,0.3-0.1,0.5-0.2c1.3,1.9,0.5,4.1,0.7,6.1
		c0,3,0,5.9,0,8.9C461.6,274.3,459.6,274.3,457.5,274.3z"/>
	<path class="st1" d="M519,151.4c0.5-2.2,1.3-3,3.4-3c2.9,0,5.9,0,8.8,0c0,1,0,2,0.1,3c-3.5,0-6.9,0.1-10.4,0.1
		C520.3,151.5,519.6,151.5,519,151.4z"/>
	<path class="st8" d="M649.8,541.3l-9.3-4.1c-13.4,21.3-29.2,41.1-47.2,59.1c-31,31-67,55.3-107.1,72.2
		C444.6,686.1,400.5,695,355,695s-89.6-8.9-131.2-26.5c-28.3-12-54.6-27.6-78.5-46.7l-7.1,7.1l-7.1,7.1c61.3,49.5,139.1,79,223.9,79
		c128.5,0,241.1-67.9,304-169.7L649.8,541.3z"/>
	<path class="st8" d="M39.8,524.3c0-11.9,0-23.7,0-35.6c0-3.5-1.1-6.3-3.6-8.7c-4.6-4.3-6.8-9.7-6.5-16.1c0.1-2,0-4,0-6
		c0-2.6,0.4-5.1,1.2-7.4C22.4,420.6,18,389.6,18,357.9c0-30.3,4-60,11.8-88.8l-9.3-4.1l-9.2-4.1c-8.7,30.8-13.3,63.3-13.3,96.9
		c0,60.6,15.1,117.7,41.8,167.7C39.8,525.2,39.8,524.7,39.8,524.3z"/>
	<path class="st8" d="M317.8,377.5c-2.3-1.9-2.4-3.6,0-5.6c3-2.6,5.2-5.8,5.2-10c0-12,0.1-23.9,0-35.9c0-5.4-3.7-9.7-8.9-11.3
		c-2.2-0.7-4.4-0.5-6.6-0.4c-1.8,0.1-3.2-0.5-4.4-1.8c-3-3.1-6.1-6.1-9.1-9.2c-2.8-2.9-6.1-4.2-10.1-4.2c-7.3,0.1-14.7,0.1-22,0
		c-4.4-0.1-7.9,1.4-11,4.5c-5.3,5.5-10.8,10.8-16.2,16.3c-1.7,1.7-3.1,1.8-4.7,0c-1.2-1.3-2.5-2.5-3.8-3.8c-5.5-5.3-12.6-5.4-17.9,0
		c-2.3,2.4-4.6,3.6-7.9,3.2c-1.2-0.2-2.5-0.1-3.8,0c-1.7,0.1-3.1-0.3-4.1-1.7c-5.2-7.1-12.4-9.6-21-8.4c-0.8,0.1-1.7,0-2.5,0
		c-15.7,0-13.1-1-24.7,10.2c-5,4.8-8.9,9.8-7.8,17.2c0.2,1.5-0.5,2.8-2.2,2.8c-4.5,0.1-7.6,2.5-10.5,5.6c-3.9,4.1-7.9,8.2-12.5,12.8
		c0-4.7,0.1-8.4,0-12c0-1.6,0.4-2.3,1.9-3.1c5.4-2.8,8.2-7.4,8.2-13.5c0-5.9-2.9-10.5-8.1-13.2c-1.6-0.8-1.9-1.8-1.9-3.4
		c0.1-5.9,0.1-11.8,0-17.6c0-2,0.5-3.2,2.3-4.1c4.4-2.3,7.1-6.1,7.5-10.9c0.5-5.3,0.1-10.6,0.1-15.9c-23.5,0-46.9,0-70.4,0
		c0,4.2,0.1,8.3,0,12.4c-0.2,6.7,2.6,11.8,8.5,14.9c1.2,0.6,1.6,1.3,1.6,2.7c-0.1,6.4,0,12.8,0,19.2c0,1,0,1.9-1.2,2.5
		c-5.9,2.9-9,7.8-8.7,14.4c0.3,6.5,3.9,10.9,10,13.6c0,22.3,0,44.4,0,66.6c0,1.4-0.6,2-1.8,2.5c-2.7,1.3-5.5,2.6-8.1,4.1
		c-6.3,3.5-9.8,8.9-10.2,16c-0.2,3.8-1.5,6.8-4.2,9.4c-2.2,2.2-3.8,4.6-4.8,7.4c3.7,13.1,8.3,25.9,13.6,38.6
		c2.5,6,5.2,11.9,8.1,17.7c9.1,0,18.1,0,27.3,0c0,6.5,0,13.1,0,19.8c-5.5,0-11.1,0-16.7,0c2,3.5,4.1,7,6.3,10.4c8.5,0,17.1,0,25.7,0
		c0,6.7,0,13.2,0,19.8c-4.1,0-8.1,0-12.2,0c2.5,3.4,5.1,6.8,7.7,10.1c77.1,0,154.1,0,231.1,0c0.1-0.4,0.2-0.5,0.2-0.7
		c0-32.3,0-64.7,0-97c0-3.3-1.3-6.1-3.5-8.5c-1.5-1.6-3-3.2-4.7-4.7c-1.5-1.3-1.9-2.8-1.9-4.7c0.1-6.8,0.4-13.7-0.1-20.5
		c-0.4-5.6,1.1-9.9,5.5-13.3c3.5-2.7,4.8-6.6,4.7-11.1c-0.2-5.1-0.2-10.3,0-15.4C323.2,385,321.7,380.8,317.8,377.5z M60.8,495.5
		c-3.3,0-6.5,0-10,0c0-2.8,0-5.5,0-8.2c0.1-5.9-1.9-10.9-6.1-15c-2.9-2.7-4.2-5.9-4-9.8c0.1-1.9,0-3.8,0-5.7c0-3,1-5.5,3.1-7.6
		c4.5-4.2,6.9-9.3,7-15.6c0-3.4,1.8-6,4.6-7.7c1.6-1,3.3-1.7,5.3-2.7C60.8,447.6,60.8,471.5,60.8,495.5z M191.9,495.5
		c-6.8,0-13.2,0-20,0c0-10,0-19.9,0-30.1c-10.2,0-20.1,0-29.7,0c-0.8-0.6-0.7-1.2-0.7-1.7c0-15.6-0.3-31.3,0.1-46.9
		c0.5-21.4,8.8-39.6,24.1-54.6c0.3-0.3,0.6-0.5,1.1-0.9c11.2,10.5,18.7,23.1,22.6,37.8c1.7,6.3,2.5,12.7,2.5,19.3
		c0,25.2,0,50.4,0,75.6C191.9,494.4,191.9,494.8,191.9,495.5z M206.9,505.9c0,6.5,0,13.1,0,19.8c-16.6,0-33.2,0-50.1,0
		c0-6.7,0-13.1,0-19.8C173.4,505.9,190.1,505.9,206.9,505.9z M161.5,475.6c0,6.5,0,13.1,0,19.8c-21.6,0-43.3,0-65.2,0
		c0-6.7,0-13.1,0-19.8C118,475.6,139.7,475.6,161.5,475.6z M61.2,274.1c16.6,0,33.2,0,49.8,0c2,6.7-3.3,10-8.8,10
		c-10.7-0.1-21.4-0.1-32.1,0C64.5,284.1,59.4,280.9,61.2,274.1z M101.1,294.2c0,6.8,0,13.2,0,19.9c-3.3,0-6.5,0-9.8,0
		c0-6.6,0-13.1,0-19.9C94.6,294.2,97.7,294.2,101.1,294.2z M80.9,294.3c0,6.4,0,13.1,0,19.8c-3.2,0-6.3,0-9.6,0c0-6.5,0-13,0-19.8
		C74.2,294.3,77.4,294.3,80.9,294.3z M61,329.3c0-3.1,2.2-5,5.9-5c6.5,0,13,0,19.5,0c6.3,0,12.6,0,18.9,0c3.9,0,6.2,2,6.1,5.2
		c-0.1,3-2.3,4.9-6.1,4.9c-12.8,0-25.6,0-38.3,0C63.2,334.4,61,332.4,61,329.3z M86.2,495.4c-5.1,0-10,0-15,0c0-18.3,0-36.6,0-55.1
		c3.2,0,6.4,0,9.7,0c0-3.4,0-6.6,0-10.1c-3.2,0-6.4,0-9.7,0c0-28.6,0-57,0-85.7c10,0,19.9,0,29.9,0c0,3.3,0,6.5,0,9.9
		c-4.8,0-9.7,0-14.8,0c0,3.4,0,6.6,0,10.1c4.8,0,9.7,0,14.8,0c0,26.9,0,53.6,0,80.6c-3.1,0-6.3,0-9.7,0c0,3.4,0,6.6,0,10.1
		c3.1,0,6.3,0,9.7,0c0,3.4,0,6.6,0,10.1c-4.8,0-9.7,0-14.8,0C86.2,475.4,86.2,485.4,86.2,495.4z M91.3,525.7c0-6.5,0-13.1,0-19.8
		c8.2,0,16.4,0,24.9,0c0,3.1,0,6.3,0,9.7c3.4,0,6.6,0,10.1,0c0-3.2,0-6.4,0-9.8c7,0,13.4,0,20.1,0c0,6.6,0,13.2,0,19.9
		C128.1,525.7,109.8,525.7,91.3,525.7z M166.6,555.9c-19.9,0-39.9,0-60.1,0c0-6.4,0-12.9,0-19.7c19.8,0,39.8,0,60.1,0
		C166.6,542.7,166.6,549.2,166.6,555.9z M242.1,556c-21.8,0-43.4,0-65.1,0c0-6.7,0-13.2,0-19.9c5,0,9.8,0,15,0c0,3.3,0,6.5,0,9.8
		c3.4,0,6.6,0,10.1,0c0-3.3,0-6.5,0-9.8c13.5,0,26.8,0,40.1,0C242.1,542.8,242.1,549.4,242.1,556z M282.6,495.5c-16.9,0-33.5,0-50,0
		c-0.7-0.6-0.4-1.2-0.4-1.8c0-25.2-0.2-50.4,0.1-75.6c0.2-21.7,8.3-40.2,23.7-55.5c0.4-0.4,0.9-0.8,1.5-1.4
		c11.2,10.6,18.7,23.2,22.6,37.9c1.7,6.3,2.5,12.7,2.5,19.3c0,25.1,0,50.2,0,75.3C282.6,494.2,282.6,494.7,282.6,495.5z
		 M312.6,505.8c0,6.5,0,13.1,0,19.8c-13.1,0-26.4,0-39.9,0c0-6.4,0-13,0-19.8C286,505.8,299.2,505.8,312.6,505.8z M262.3,505.9
		c0,6.6,0,13.1,0,19.8c-15,0-29.9,0-45.1,0c0-6.7,0-13.2,0-19.8C232.2,505.9,247.2,505.9,262.3,505.9z M312.8,555.9
		c-20,0-40,0-60.2,0c0-6.5,0-13.1,0-19.8c19.9,0,39.9,0,60.2,0C312.8,542.8,312.8,549.2,312.8,555.9z M309.4,411.4
		c-5.4,4-7.1,9.4-6.7,16c0.4,7.8,0.2,15.7,0.1,23.6c-0.1,4.4,1.3,8,4.6,10.9c0.3,0.3,0.6,0.6,0.9,0.9c5,5,5,5,4.5,12.5
		c-3.2,0-6.4,0-9.7,0c0,3.4,0,6.6,0,10.1c3.2,0,6.4,0,9.7,0c0,3.4,0,6.6,0,10c-6.6,0-13.1,0-19.7,0c-0.5-1.1-0.2-2.3-0.2-3.4
		c0-24.1,0.1-48.3-0.1-72.4c-0.2-28.8-11.7-52.3-33.9-70.6c-0.4-0.3-0.8-0.6-1.3-1c-16.6,13-27.6,29.4-32.7,49.8
		c-1.8,7.4-2.6,14.9-2.6,22.4c0,23.8,0,47.7,0,71.5c0,1.1,0,2.3,0,3.6c-6.7,0-13.2,0-20,0c0-19.9,0-39.9,0-60.1c3.1,0,6.3,0,9.7,0
		c0-3.4,0-6.6,0-10.1c-3.1,0-6.3,0-9.9,0c0.9-31.8-10.6-57.4-35.2-77.2c-14.8,11.5-25.2,25.8-31,43.5c-3,9.2-4.4,18.7-4.4,28.5
		c0,15,0,30,0,45.2c-6.6,0-13.2,0-19.9,0c0-16.5,0-33.1,0-50c3,0,6.2,0,9.7,0c0-3.4,0-6.6,0-10.1c-3.1,0-6.3,0-9.9,0
		c0-2.4,0-4.6,0-6.7c0-8.1,0-16.2,0-24.2c0-1.5,0.3-2.7,1.5-3.9c6.4-6.3,12.8-12.7,19.2-19.1c1-1,2-1.5,3.5-1.7
		c6.7-0.8,11.3-5.7,11-12.6c-0.2-3.9,1.5-6.4,3.8-9.3c5.4-6.8,11.8-9,20.4-8.5c6.2,0.3,11.3,1.1,15.3,6.3c2.2,3,5.7,4.1,9.5,4
		c1.6,0,3.2-0.2,4.7,0c6,0.8,11.1-0.4,14.7-5.7c1.3-1.9,2.9-1.8,4.4-0.1c1.3,1.4,2.6,2.7,4,4c5.3,5.1,12.4,5.2,17.7,0
		c5.5-5.3,10.9-10.8,16.2-16.3c1.5-1.5,3-2.3,5.2-2.2c6.8,0.1,13.6,0.1,20.5,0c1.8,0,3.2,0.5,4.4,1.8c2.6,2.8,5.4,5.3,8,8.1
		c3.5,3.9,7.6,5.6,12.8,5.3c4.6-0.2,4.6,0,4.6,4.5c0,1.8,0,3.5,0,5.5c-11.8,0-23.4,0-35.1,0c0,3.4,0,6.6,0,10.1
		c11.7,0,23.3,0,35.1,0c0,5.8,0,11.3,0,16.8c0,1.6-1.2,2.4-2.1,3.3c-6.8,6.9-6.8,13.2,0,20.2c2.1,2.1,2.1,2.1,1.8,4.9
		c-3.1,0-6.3,0-9.6,0c0,3.3,0,6.5,0,10c3,0,6.2,0,9.6,0C313.1,404.2,313.6,408.3,309.4,411.4z"/>
	<g>
		<path class="st8" d="M90.6,567c-2.6-3.3-5.2-6.7-7.7-10.1c-7.6,0-15.2,0-22.9,0c0-3.2,0-6.4,0-9.7c-2.7,0-5.2,0-7.8,0
			c4.2,6.8,8.7,13.4,13.3,19.8c7.1,9.8,14.7,19.3,22.8,28.4l7.1-7.1l7.1-7.1C98.4,576.5,94.4,571.8,90.6,567z"/>
		<path class="st8" d="M63.2,526.7c-4.4,0-8.8,0-13.2,0c0-6.7,0-13.1,0-19.8c0.9,0,1.8,0,2.7,0c-2.9-5.8-5.6-11.7-8.1-17.7
			c-5.3-12.6-9.9-25.5-13.6-38.6c-0.8,2.3-1.2,4.7-1.2,7.4c0,2,0.1,4,0,6c-0.2,6.3,1.9,11.7,6.5,16.1c2.5,2.4,3.6,5.2,3.6,8.7
			c-0.1,11.9,0,23.7,0,35.6c0,0.4,0.1,0.9,0,1.4c2,3.8,4.1,7.6,6.3,11.4c7.8,0,15.5,0,23.3,0C67.3,533.7,65.2,530.2,63.2,526.7z"/>
	</g>
	<g>
		<path d="M656.6,519.2c0.1,1.7,1.2,2.5,4.5,2.7c0.1,2.1,0.2,4.3,2.8,4.4c2.9,0.1,2.6-2.5,2.8-4.3c3.5-0.4,4.4-1,4.5-2.8
			c0-1.8-0.9-2.4-4.4-2.9c-0.5-3.5-1.2-4.5-2.9-4.4c-2.7,0.3-2.6,2.4-2.7,4.3C657.6,516.7,656.5,517.5,656.6,519.2z"/>
		<path d="M594.6,120.2c0.1,1.7,1.2,2.5,4.5,2.7c0.1,2.1,0.2,4.3,2.8,4.4c2.9,0.1,2.6-2.5,2.8-4.3c3.5-0.4,4.4-1,4.5-2.8
			c0-1.8-0.9-2.4-4.4-2.9c-0.5-3.5-1.2-4.5-2.9-4.4c-2.7,0.3-2.6,2.4-2.7,4.3C595.6,117.7,594.5,118.5,594.6,120.2z"/>
		<path d="M24.6,236.2c0.1,1.7,1.2,2.5,4.5,2.7c0.1,2.1,0.2,4.3,2.8,4.4c2.9,0.1,2.6-2.5,2.8-4.3c3.5-0.4,4.4-1,4.5-2.8
			c0-1.8-0.9-2.4-4.4-2.9c-0.5-3.5-1.2-4.5-2.9-4.4c-2.7,0.3-2.6,2.4-2.7,4.3C25.6,233.7,24.5,234.5,24.6,236.2z"/>
		<path d="M110.6,607.2c0.1,1.7,1.2,2.5,4.5,2.7c0.1,2.1,0.2,4.3,2.8,4.4c2.9,0.1,2.6-2.5,2.8-4.3c3.5-0.4,4.4-1,4.5-2.8
			c0-1.8-0.9-2.4-4.4-2.9c-0.5-3.5-1.2-4.5-2.9-4.4c-2.7,0.3-2.6,2.4-2.7,4.3C111.6,604.7,110.5,605.5,110.6,607.2z"/>
	</g>
	<g>
		<path class="st9" d="M493.5,555.2c-0.4,0-1,0-1.6,0.1C492.6,555.3,493.1,555.3,493.5,555.2z"/>
		<path class="st9" d="M539,445.4c5.1,0.2,10.3,0,15.5,0v-0.1c5.2,0,10.4,0,15.7,0c1.7,0,2.8-0.8,3.1-2.5c0.3-1.7-0.5-2.9-2.1-3.3
			c-1.4-0.4-2.2-1.3-2.9-2.5c-1.1-1.9-2.8-3-5-2.9c-2.4,0.1-3.7-1-4.7-3c-1.7-3.5-4.8-5.3-8.6-5.3c-3.9,0-7,1.8-8.8,5.4
			c-0.9,1.7-1.9,2.9-3.9,3.4c-1.4,0.3-2.4,1.3-3.1,2.6C532.2,440.9,534.6,445.3,539,445.4z"/>
		<path class="st9" d="M500.6,466.2c3.5,0,7.1,0,10.6,0c11.3,0,22.6,0,33.8,0c3.9,0,7-1.7,8.8-5.2c1.7-3.3,1.3-6.4-0.7-9.5
			c-0.8-1.3-1.9-1.9-3.5-1.8c-3.4,0.1-6.8,0.2-10.2,0.1c-5.4-0.1-9.3-3.4-10.2-8.3c-0.4-2.1,0.3-4.1,0.8-6.1
			c-5.9-0.7-11.8,3-14.6,9.1c-0.9,2-2.3,3.2-4.6,3.1c-4.3-0.2-7.5,1.6-9.5,5.5c-0.6,1.2-1.5,1.9-2.8,2.4c-3.4,1.2-5,3.4-4.4,6.3
			C494.7,464.5,497.1,466.1,500.6,466.2z"/>
		<path class="st9" d="M495.6,554.6c-0.2,0.1-0.4,0.2-0.6,0.3C495.2,554.9,495.4,554.8,495.6,554.6z"/>
		<path class="st8" d="M555.7,628.3c0-8.5,0-17,0-25.6c9.3,7.5,18.7,7.6,28.2-0.1c0,0.9,0,1.8,0,2.7c1.5-1.4,2.9-2.7,4.4-4.1
			c0-1.4,0-2.7,0-4.1c0.6,0,1-0.1,1.4-0.1c0.9,0,1.8,0,2.9,0c0.3-0.3,0.5-0.5,0.8-0.8c1.3-1.3,2.5-2.6,3.8-3.9
			c-0.3-1.5,0.1-3-0.5-4.4c-1.3-2.9-4.3-4.5-7.4-3.9c-2.8,0.5-5.1,3.3-5.2,6.3c0,1.3-0.1,2.2-1.5,2.9c-1.8,0.9-1,2.4,0.1,3.6
			c-4.1,7.6-16.7,10.6-24.7,1.7c-0.7-0.8-1-1.5-0.2-2.5c0.8-1,0.5-2.4-0.7-2.8c-1.6-0.6-1.5-1.6-1.6-2.9c-0.1-3.1-2.6-5.9-5.4-6.3
			c-3.1-0.5-6.1,1.2-7.2,4.1c-0.5,1.4-0.2,2.8-0.4,4.3c-2.2,0.7-3.4,2-1.6,4.4c0.3,0.3-0.1,0.8-0.3,1.1c-7.2,9.3-20.4,7.2-25-0.8
			c1.6-2.6,1.7-2.7-0.8-4.3c-0.8-0.5-0.5-1.2-0.6-1.8c-0.3-4.2-2.8-6.9-6.6-7c-3.7,0-6.5,2.8-6.6,6.6c0,1.1,0,2-1.4,2.6
			c-1.5,0.7-1.4,1.8,0,3.8c-5.2,8.8-18.9,9.5-24.9,1.2c-0.4-0.5-0.7-0.9-0.4-1.7c1.2-2.5,0.9-3-1.8-4.1c0-0.7,0-1.5,0-2.2
			c-0.1-3.4-3-6.1-6.4-6.2c-3.6,0-6.4,2.6-6.6,6.2c-0.1,1.3,0.3,2.5-1.6,3.1c-1.3,0.4-1.2,1.8-0.6,2.8c0.4,0.7,0.7,1.1,0.1,1.8
			c-7,9.1-20.2,7.3-25.1-0.8c1.7-2.4,1.7-2.7-0.8-4.3c-0.9-0.6-0.5-1.3-0.6-2c-0.2-3.1-2-5.7-4.7-6.5c-2.4-0.8-5.1,0-6.8,2
			c-0.8,1-1.4,2.1-1.6,3.4c-0.2,1.6-0.2,3.1-2,4.1c-1.2,0.7-0.7,2.4,0.8,3.2c0.6,0.3,1,0.5,1,1.3c0,10,0,19.9,0,30.2
			c-4.1,0-8,0-12,0c-0.7,0-1-0.4-1-1.1c0-0.6,0-1.1,0-1.7c0-17.5,0-35,0-52.5c0-0.7,0-1.4,0.1-2.1c0-12.7,0-25.5-0.1-38.2
			c0-0.3,0.1-0.5,0.1-0.8c0.8-0.5,1.6-0.3,2.3-0.3c13.9,0,27.7,0,41.6,0c2.7,0,4.6,0.9,6.2,3.1c2.8,4,5.9,8,8.8,11.9
			c2.1,2.9,4.9,4.5,8.4,4.1c4.1-0.4,6.9,1.1,9.5,4.2c5.1,6.1,13.7,6.1,19.3,0.4c5-5,10-9.9,14.9-14.9c1.5-1.5,3.2-2.2,5.4-2.2
			c4.9,0.1,9.7,0,14.6,0c2.5,0,4.8-0.4,6.7-1.9c5.1-4.1,10.9-5,17.3-4.9c15.9,0.3,31.9,0.1,47.8,0.1c0.8,0,1.5,0,2.6,0
			c0,6.6,0,13.1,0,19.7c0,6.5,0,13.1,0,19.6c0,2.3,0,4.6,0,6.9c1.4-1.7,2.8-3.3,4.2-5c0-14,0-28,0-42c-1.3-2.6-3.3-3.5-6.2-3.4
			c-4.5,0.2-9.1,0-13.6,0c-2.8,0-5.6,0-8.6,0c4.4-5,4.3-9.2-0.2-13.7c-7.1-7.1-14.2-14.2-21.3-21.3c-0.9-0.9-1.7-1.8-2.7-2.6
			c-2.8-2.1-5.9-2.5-9-0.8c-3.1,1.6-4.5,4.3-4.4,7.9c0.1,1.6,0.8,3,1.4,4.3c-8.8,8.8-17.6,17.5-26.3,26.3c-2-1.6-4.5-1.6-7-1.1
			c-2.3,0.4-4.5,0.7-6.8,1c-4.8,0.6-7.2,4-6.2,8.7c0.5,2.2,0.9,4.5,1.5,6.7c0.5,1.8,0.2,3-1.6,3.9c-0.4-0.7-0.7-1.4-1.1-2
			c-2-3.9-5.1-4.9-9-2.7c-1.7,1-3.3,2-5.1,2.9c-2.3,1.2-4.5,2.6-5.1,5.7c-2-2.6-4.5-3.7-7.2-4c0-20.8,0-41.4,0-62
			c5.1-1.6,7.6-5.1,6.9-9.7c-0.6-4.2-4.2-6.9-9.3-6.9c-5.4,0-10.7,0-16.1,0c-5.9,0-11.8-0.1-17.8,0.1c-4,0.1-7.1,3.2-7.7,7.2
			c-0.5,3.6,1.7,7.3,5.3,8.8c0.5,0.2,1.3,0.1,1.6,0.6c0,14.3,0,28.5,0,42.8c-0.8,0-1.5,0-2.2,0c-10,0-19.9,0-29.9,0
			c-5,0-6.4,1.4-6.4,6.5c0,30.6,0,61.2-0.1,91.7c0,3,0.8,5.2,3.4,6.7c48.9,0,97.8,0,146.6,0c2-1.4,3.9-2.8,5.8-4.3
			C556.1,628.3,555.9,628.3,555.7,628.3z M589.2,588.7c0.8-0.6,1.7-0.6,2.5-0.1c1.7,1,1,2.7,1.1,4.2c-1.6,0-3,0-4.6,0
			C588.1,591.3,587.7,589.8,589.2,588.7z M558.4,492.9c0.8,0.4,1.5,1,2.1,1.6c7.6,7.6,15.1,15.1,22.7,22.7c1.2,1.2,2.1,2.5,1.8,4.2
			c-0.3,2.3-2.6,4-4.8,3.6c-2.5-0.5-4.3-2.9-3.3-5.3c1.2-2.9,0.1-4.7-1.9-6.6c-3.8-3.6-7.5-7.3-11.1-11.1c-1.8-1.9-3.6-2.5-6.1-1.6
			c-2.8,1-5.4-1-5.4-3.9C552.5,493.6,555.5,491.6,558.4,492.9z M524.7,532.8c9.1-9.1,18.1-18.1,27.2-27.2c1-1,1.8-1.3,3-0.8
			c1.1,0.4,2.2,0.5,3.3,0c1.6-0.7,2.6-0.1,3.7,1.1c3.3,3.5,6.8,6.8,10.2,10.2c0.8,0.8,1.3,1.5,0.8,2.7c-0.5,1.2-0.4,2.5-0.2,3.7
			c0.4,2.7-1.7,5.2-4.5,5.2c-1.4,0-2.7,0-4.6,0c1.8-1.8,3.3-3.3,4.7-4.7c1.1-1.1,1.5-2.3,0.3-3.4c-1.2-1.1-2.3-0.5-3.3,0.5
			c-1.7,1.7-3.5,3.2-5,5.1c-1.9,2.4-4.2,3.1-7.6,2.3c1.1-1,2.1-1.9,3.1-2.9c2.1-2.1,4.1-4.1,6.2-6.2c1.9-1.9,2.3-3.2,1.1-4.2
			c-1.8-1.5-2.9,0-4,1.1c-4.9,4.9-9.8,9.9-14.8,14.7c-2.4,2.3-5,4.4-9.3,4.4c3.8-3.7,7.1-7.1,10.4-10.4c3.9-3.9,7.8-7.8,11.7-11.7
			c1.1-1.1,1.9-2.2,0.6-3.6c-1.3-1.4-2.5-0.5-3.6,0.6c-7.5,7.5-15.1,15-22.6,22.7c-1.7,1.7-3.3,2.8-5.8,2.4c-0.8-0.1-1.6,0-2.8,0
			C523.9,533.6,524.3,533.2,524.7,532.8z M509,532c3.7-0.6,7.3-1.3,11.2-1.2c-3,4.3-7.9,6.5-11.3,11.1c-0.6-2.8-1.1-5.1-1.5-7.3
			C507.2,533.4,507.8,532.3,509,532z M489,549.6c2.1-1.3,4.3-2.5,6.5-3.8c1.4-0.9,2.2-0.5,3,0.9c1.9,3.5,1.9,3.5-0.8,6.2
			c-0.8,0.8-1.4,1.4-2,1.7c-0.2,0.1-0.4,0.2-0.6,0.3c-0.4,0.2-0.9,0.2-1.5,0.3c-0.4,0-1,0-1.6,0.1c-0.2,0-0.4,0-0.7,0
			c-0.1,0-0.3,0-0.4,0c-0.1,0-0.3,0-0.4,0c-1.1-0.1-2.5,0.4-3.1-1C486.7,552.6,487.5,550.4,489,549.6z M471.6,544.4
			c0,0.8,0,1.5,0,2.5c-3.4-0.2-4.3-1.2-4.3-4.2c0-18,0-36.1,0-54.1c0-0.5,0-1,0-1.5c0-1.5-0.3-2.9-2.2-2.9c-1.8,0-2,1.4-2,2.8
			c0,15.5,0,31.1,0,46.6c0,1.6,0,3.2,0,5.5c-1.7-2.6-3.7-4.1-3.7-7.2c0.1-14.6,0.1-29.2,0.1-43.9c0-0.6,0-1.3,0-1.9
			c-0.1-1.2-0.7-2-1.9-2c-1.3-0.1-1.9,0.7-2.2,1.8c-0.1,0.6-0.1,1.2-0.1,1.9c0,13,0,25.9,0,38.9c0,0.7,0,1.4,0,2.1
			c-3.5-0.6-3.5-0.6-3.5-3.8c0-12.4,0-24.8,0-37.2c0-0.6,0-1.1,0-1.7c-0.2-1.3-0.9-2.1-2.2-2c-1.2,0.1-1.8,0.8-1.9,2.1
			c0,0.6,0,1.1,0,1.7c0,12.4,0,24.8,0,37.2c0,0.8,0,1.5,0,2.4c-1.5,0-2.8,0-4.2,0c-0.5-0.6-0.2-1.3-0.2-1.9c0-13.1,0-26.2,0-39.3
			c0-1.3,0.1-2.2,1.5-2.8c1-0.4,2-1.3,2.4-2.3c0.8-1.8,2-2,3.8-2c4.6,0.1,9.2,0.1,13.8,0c1.4,0,2.4,0.1,2.9,1.6
			c0.4,1,1.1,1.9,2.1,2.3c2,0.8,2,2.3,2,4C471.6,506.2,471.6,525.3,471.6,544.4z M436.1,476.1c0.3-2.1,1.9-3.7,4.3-3.7
			c5.7-0.1,11.4,0,17.1,0l0,0c5.6,0,11.1,0,16.7,0c2.7,0,4.4,1.6,4.5,3.9c0.1,1.9-1.1,3.6-2.8,4.2c-1.9,0.6-4.1,0-4.8-1.8
			c-1.2-3.1-3.4-3.6-6.3-3.5c-5.3,0.1-10.6,0.1-15.9,0c-2.3,0-3.8,0.8-4.8,2.9c-1,2.2-3,3.1-5.1,2.4
			C437.2,479.9,435.8,478,436.1,476.1z M426.6,628.4c-1.6,0-3,0-4.6,0c0-10.4,0-20.7,0-31.2c1.6,0,3,0,4.6,0
			C426.6,607.6,426.6,617.9,426.6,628.4z M426.7,592.8c-1.7,0-3.1,0-4.7,0c-0.1-1.6-0.4-3.1,1.1-4.2c0.7-0.5,1.6-0.6,2.4-0.1
			C427.1,589.5,426.7,591.1,426.7,592.8z M459.2,628.2c-9.3,0-18.6,0-28.2,0c0-8.5,0-16.9,0-25.5c9.4,7.6,18.7,7.6,28.2,0
			C459.2,611.2,459.2,619.6,459.2,628.2z M468.1,628.3c-1.5,0-3,0-4.5,0c0-10.4,0-20.7,0-31.2c1.5,0,2.9,0,4.5,0
			C468.1,607.5,468.1,617.8,468.1,628.3z M468.2,592.9c-1.6,0-3,0-4.5,0c-0.1-1.5-0.6-3,0.8-4.2c0.8-0.6,1.7-0.6,2.5-0.1
			C468.7,589.6,468.1,591.2,468.2,592.9z M500.6,628.2c-9.3,0-18.7,0-28.2,0c0-8.6,0-17,0-25.7c4.2,3.6,8.7,5.8,14,5.8
			c5.4,0,10-2,14.2-5.8C500.6,611.2,500.6,619.7,500.6,628.2z M509.6,628.3c-1.5,0-3,0-4.6,0c0-10.5,0-20.7,0-31.1c1.5,0,3,0,4.6,0
			C509.6,607.6,509.6,617.9,509.6,628.3z M509.7,592.8c-1.6,0-3.1,0-4.7,0c-0.1-1.6-0.4-3.1,1.1-4.2c0.7-0.5,1.6-0.5,2.4,0
			C510.2,589.6,509.7,591.2,509.7,592.8z M542.4,628.3c-9.5,0-18.8,0-28.4,0c0-8.5,0-17,0-25.7c9.4,7.8,18.9,7.8,28.4,0
			C542.4,611.3,542.4,619.7,542.4,628.3z M551.2,628.3c-1.5,0-2.9,0-4.5,0c0-10.3,0-20.7,0-31.2c1.5,0,3,0,4.5,0
			C551.2,607.6,551.2,617.9,551.2,628.3z M551.3,592.8c-1.5,0.3-3,0.2-4.6,0.1c0-1.6-0.5-3.2,1.1-4.2c0.8-0.5,1.6-0.5,2.4,0
			C551.7,589.6,551.3,591.2,551.3,592.8z"/>
		<path class="st8" d="M490,462.4c0.8,4.4,4.7,7.9,9.5,7.9c15.5,0.1,30.9,0.1,46.4,0c6.1,0,11.3-4.3,12.9-10.1
			c1-3.7,0.3-7.1-1.5-10.7c4.6,0,9,0.1,13.4,0c5.3-0.2,9.1-6,6.1-10.2c-2.7-3.7-6.2-7.1-10.7-9c-0.4-0.2-1-0.4-1.4-0.3
			c-1.4,0.1-2-0.6-2.7-1.7c-5.5-9-18.6-8.9-23.9,0.2c-1.3,2.3-3.1,2.9-5.5,2.6c-9.1-1-16.4,2.9-20.6,11c-0.5,0.9-0.9,1.2-1.9,1.2
			c-5.2,0.1-9.2,2.4-11.8,6.9c-0.4,0.7-0.8,1.2-1.6,1.5C491.7,453.4,489.1,457.7,490,462.4z M534.2,437.2c0.7-1.3,1.7-2.3,3.1-2.6
			c2-0.4,3-1.7,3.9-3.4c1.8-3.6,4.8-5.4,8.8-5.4c3.8,0,6.9,1.8,8.6,5.3c1,2,2.3,3.1,4.7,3c2.2-0.1,3.9,1,5,2.9
			c0.7,1.2,1.5,2.1,2.9,2.5c1.6,0.5,2.4,1.7,2.1,3.3c-0.3,1.7-1.5,2.5-3.1,2.5c-5.2,0-10.4,0-15.7,0v0.1c-5.2,0-10.3,0.1-15.5,0
			C534.6,445.3,532.2,440.9,534.2,437.2z M498.6,455.4c1.2-0.4,2.2-1.2,2.8-2.4c2-3.9,5.1-5.7,9.5-5.5c2.3,0.1,3.7-1.1,4.6-3.1
			c2.8-6.1,8.7-9.7,14.6-9.1c-0.5,2-1.2,4-0.8,6.1c1,5,4.9,8.2,10.2,8.3c3.4,0.1,6.8,0,10.2-0.1c1.6-0.1,2.6,0.5,3.5,1.8
			c2,3,2.3,6.2,0.7,9.5c-1.8,3.6-4.9,5.2-8.8,5.2c-11.3,0.1-22.6,0-33.8,0c-3.5,0-7.1,0-10.6,0c-3.5,0-5.9-1.7-6.4-4.5
			C493.6,458.8,495.2,456.6,498.6,455.4z"/>
		<path class="st8" d="M497.2,525.1c-1.2-2.2-3.4-2.8-5.7-1.7c-1.2,0.6-2.4,1.5-3.6,2.1c-2.3,1.1-3.4,2.8-3.1,4.9
			c-0.1,3,0.7,4.2,3,5.3c1.1,0.5,2.3,0.9,3.4,1.5c2,1,4.2,1.4,5.7-0.5c1.6-2.1,3.5-4.5,2.2-7.6C498.6,527.6,497.9,526.3,497.2,525.1
			z M493.8,533.6c-1.2-0.5-2.5-1-3.8-1.6s-1.4-1.9-0.2-2.7c1.1-0.8,2.4-1.4,3.7-2.2C494.7,529.3,496.4,531.2,493.8,533.6z"/>
		<path class="st11" d="M576.6,486.2c0.1,1.7,1.2,2.5,4.5,2.7c0.1,2.1,0.2,4.3,2.8,4.4c2.9,0.1,2.6-2.5,2.8-4.3
			c3.5-0.4,4.4-1,4.5-2.8c0-1.8-0.9-2.4-4.4-2.9c-0.5-3.5-1.2-4.5-2.9-4.4c-2.7,0.3-2.6,2.4-2.7,4.3
			C577.6,483.7,576.5,484.5,576.6,486.2z"/>
		<path class="st12" d="M486.4,440.9c1.1-4.4,3.7-6.6,7.9-7.8c-4.4-1-6.6-3.5-7.8-7.3c-2.4,4.9-3.4,5.8-7.8,7.4
			C482.7,434.2,485.2,436.7,486.4,440.9z"/>
		<path class="st13" d="M420.2,516.4c0.8-3.2,2.8-4.5,5.4-5.7c-2.9-0.6-4.3-2.5-5.5-5c-0.9,2.8-2.6,4.3-5.4,5.1
			C417.5,511.7,419.2,513.4,420.2,516.4z"/>
		<path class="st12" d="M597.2,508.3c1.5,0,2.7-1.3,2.7-2.9c0-1.6-1.2-2.8-2.7-2.8s-2.7,1.3-2.7,2.8
			C594.4,507,595.7,508.3,597.2,508.3z"/>
		<path class="st14" d="M507.7,424.3c1.5,0,2.7-1.2,2.8-2.8c0.1-1.7-1.1-3-2.8-2.9c-1.6,0-2.7,1.2-2.7,2.8
			C504.9,422.9,506.3,424.3,507.7,424.3z"/>
		<path class="st15" d="M437.3,577.2c6-0.5,11.4-2.8,16.9-4.8c6.6-2.4,13.5-2.7,20.5-2.2c5.9,0.5,11.3,2.6,16.8,4.7
			c7,2.6,14.1,2.9,21.5,2.4c6.7-0.5,12.5-3.5,18.7-5.4c6.2-1.9,12.5-2.1,18.9-1.6c5.8,0.5,11,2.6,16.4,4.5
			c7.1,2.7,14.5,3.2,22.1,2.4c5.6-0.5,10.6-2.4,15.7-4.5c1.7-0.7,3.5-1.2,5.4-1.5l0,0c0-6.5,0-13,0-19.6c0-6.5,0-13.1,0-19.7
			c-1.1,0-1.8,0-2.6,0c-15.9,0-31.9,0.2-47.8-0.1c-6.5-0.1-12.2,0.8-17.3,4.9c-1.9,1.5-4.2,2-6.7,1.9c-4.9-0.1-9.7,0-14.6,0
			c-2.2,0-3.9,0.7-5.4,2.2c-4.9,5-9.9,10-14.9,14.9c-5.7,5.7-14.2,5.6-19.3-0.4c-2.6-3.1-5.5-4.6-9.5-4.2c-3.5,0.3-6.3-1.3-8.4-4.1
			c-2.9-4-5.9-7.9-8.8-11.9c-1.5-2.2-3.4-3.1-6.2-3.1c-13.9,0.1-27.7,0-41.6,0c-0.7,0-1.5-0.2-2.3,0.3c0,0.2-0.1,0.5-0.1,0.8
			c0,12.7,0,25.5,0.1,38.2c3.5,0.6,6.7,2.1,10,3.4C422,577.3,429.5,577.8,437.3,577.2z"/>
		<path class="st16" d="M610.2,571.1c-1.9,0.3-3.7,0.8-5.4,1.5c-5.1,2-10.2,3.9-15.7,4.5c-7.6,0.7-15,0.2-22.1-2.4
			c-5.3-2-10.6-4.1-16.4-4.5c-6.4-0.5-12.7-0.3-18.9,1.6c-6.2,1.9-12,4.9-18.7,5.4c-7.4,0.5-14.6,0.2-21.5-2.4
			c-5.5-2-10.8-4.2-16.8-4.7c-7-0.5-13.9-0.2-20.5,2.2c-5.5,2-10.9,4.3-16.9,4.8c-7.7,0.7-15.2,0.1-22.5-2.6
			c-3.3-1.3-6.5-2.8-10-3.4c0,0.7-0.1,1.4-0.1,2.1c0,17.5,0,35,0,52.5c0,0.6,0,1.1,0,1.7c0,0.7,0.4,1.1,1,1.1c3.9,0,7.9,0,12,0
			c0-10.3,0-20.2,0-30.2c0-0.8-0.5-1-1-1.3c-1.5-0.8-2-2.5-0.8-3.2c1.8-1,1.8-2.5,2-4.1c0.1-1.3,0.7-2.4,1.6-3.4
			c1.7-2,4.4-2.8,6.8-2c2.7,0.9,4.5,3.4,4.7,6.5c0,0.7-0.3,1.5,0.6,2c2.5,1.6,2.5,1.9,0.8,4.3c4.9,8.2,18,10,25.1,0.8
			c0.6-0.7,0.3-1.2-0.1-1.8c-0.6-1.1-0.7-2.5,0.6-2.8c1.9-0.6,1.5-1.8,1.6-3.1c0.2-3.6,2.9-6.2,6.6-6.2c3.4,0,6.3,2.8,6.4,6.2
			c0,0.8,0,1.5,0,2.2c2.8,1.1,3,1.7,1.8,4.1c-0.4,0.8,0,1.2,0.4,1.7c6,8.3,19.7,7.6,24.9-1.2c-1.4-2-1.5-3.1,0-3.8
			c1.4-0.6,1.3-1.5,1.4-2.6c0.1-3.8,3-6.6,6.6-6.6c3.7,0,6.2,2.7,6.6,7c0.1,0.6-0.2,1.3,0.6,1.8c2.5,1.6,2.5,1.8,0.8,4.3
			c4.7,8.1,17.8,10.1,25,0.8c0.3-0.3,0.6-0.8,0.3-1.1c-1.8-2.4-0.7-3.6,1.6-4.4c0.2-1.5-0.1-2.9,0.4-4.3c1.1-2.9,4.1-4.6,7.2-4.1
			c2.8,0.4,5.3,3.2,5.4,6.3c0,1.3-0.1,2.3,1.6,2.9c1.2,0.4,1.4,1.8,0.7,2.8c-0.8,1.1-0.5,1.8,0.2,2.5c7.9,8.9,20.5,5.9,24.7-1.7
			c-1.1-1.2-1.8-2.7-0.1-3.6c1.4-0.8,1.5-1.7,1.5-2.9c0.1-3,2.4-5.8,5.2-6.3c3-0.6,6,1,7.4,3.9c0.6,1.4,0.2,2.9,0.5,4.4
			c4.5-4.7,8.9-9.5,13.2-14.4C610.2,575.7,610.2,573.4,610.2,571.1z"/>
		<path class="st12" d="M469.6,483.1c-1-0.4-1.7-1.3-2.1-2.3c-0.5-1.5-1.6-1.6-2.9-1.6c-4.6,0.1-9.2,0.1-13.8,0c-1.7,0-3,0.2-3.8,2
			c-0.4,1-1.3,1.8-2.4,2.3c-1.4,0.6-1.5,1.5-1.5,2.8c0,13.1,0,26.2,0,39.3c0,0.7-0.2,1.4,0.2,1.9c1.4,0,2.8,0,4.2,0
			c0-0.9,0-1.7,0-2.4c0-12.4,0-24.8,0-37.2c0-0.6,0-1.1,0-1.7c0.1-1.2,0.7-2,1.9-2.1c1.4-0.1,2,0.7,2.2,2c0.1,0.5,0,1.1,0,1.7
			c0,12.4,0,24.8,0,37.2c0,3.2,0,3.2,3.5,3.8c0-0.7,0-1.4,0-2.1c0-13,0-25.9,0-38.9c0-0.6-0.1-1.3,0.1-1.9c0.2-1.1,0.9-1.9,2.2-1.8
			c1.2,0.1,1.9,0.8,1.9,2c0,0.6,0,1.3,0,1.9c0,14.6,0.1,29.2-0.1,43.9c0,3.1,2,4.6,3.7,7.2c0-2.3,0-3.9,0-5.5c0-15.5,0-31.1,0-46.6
			c0-1.4,0.2-2.8,2-2.8c1.9,0,2.2,1.3,2.2,2.9c0,0.5,0,1,0,1.5c0,18,0,36.1,0,54.1c0,3,1,4,4.3,4.2c0-0.9,0-1.7,0-2.5
			c0-19.1,0-38.2,0-57.2C471.6,485.4,471.6,483.9,469.6,483.1z"/>
		<path class="st16" d="M514,602.6c0,8.7,0,17.2,0,25.7c9.6,0,18.9,0,28.4,0c0-8.6,0-17,0-25.7C532.9,610.4,523.4,610.4,514,602.6z"
			/>
		<path class="st16" d="M555.7,602.8c0,8.6,0,17.1,0,25.6c0.2,0,0.4,0,0.6,0c9.6-7.1,18.8-14.8,27.6-23c0-0.9,0-1.8,0-2.7
			C574.4,610.4,565,610.3,555.7,602.8z"/>
		<path class="st16" d="M431,602.7c0,8.6,0,17,0,25.5c9.6,0,18.9,0,28.2,0c0-8.6,0-17,0-25.5C449.7,610.3,440.4,610.3,431,602.7z"/>
		<path class="st16" d="M472.4,602.5c0,8.7,0,17.1,0,25.7c9.5,0,18.9,0,28.2,0c0-8.6,0-17,0-25.7c-4.2,3.8-8.7,5.8-14.2,5.8
			C481.1,608.3,476.6,606.2,472.4,602.5z"/>
		<path class="st12" d="M526,534.4c2.4,0.4,4.1-0.7,5.8-2.4c7.4-7.6,15-15.1,22.6-22.7c1.1-1.1,2.2-2,3.6-0.6
			c1.3,1.3,0.5,2.5-0.6,3.6c-3.9,3.9-7.8,7.8-11.7,11.7c-3.3,3.3-6.7,6.7-10.4,10.4c4.3,0,6.9-2.1,9.3-4.4c5-4.8,9.9-9.8,14.8-14.7
			c1.1-1.1,2.2-2.7,4-1.1c1.2,1,0.8,2.2-1.1,4.2c-2.1,2.1-4.1,4.1-6.2,6.2c-1,0.9-2,1.8-3.1,2.9c3.4,0.8,5.7,0.1,7.6-2.3
			c1.5-1.8,3.3-3.4,5-5.1c1-1,2.1-1.6,3.3-0.5c1.2,1.2,0.8,2.4-0.3,3.4c-1.5,1.4-2.9,2.9-4.7,4.7c1.9,0,3.3,0,4.6,0
			c2.8,0,4.9-2.5,4.5-5.2c-0.2-1.2-0.3-2.5,0.2-3.7c0.5-1.2,0-1.9-0.8-2.7c-3.4-3.4-6.9-6.7-10.2-10.2c-1.1-1.2-2.1-1.8-3.7-1.1
			c-1,0.5-2.2,0.4-3.3,0c-1.3-0.5-2.1-0.1-3,0.8c-9,9.1-18.1,18.1-27.2,27.2c-0.4,0.4-0.8,0.9-1.5,1.6
			C524.4,534.4,525.2,534.3,526,534.4z"/>
		<path class="st12" d="M557.9,500.5c2.5-0.9,4.3-0.3,6.1,1.6c3.6,3.8,7.3,7.5,11.1,11.1c2,1.9,3.1,3.7,1.9,6.6
			c-1,2.4,0.8,4.8,3.3,5.3c2.2,0.4,4.5-1.2,4.8-3.6c0.3-1.8-0.7-3-1.8-4.2c-7.6-7.6-15.1-15.1-22.7-22.7c-0.6-0.6-1.3-1.3-2.1-1.6
			c-2.8-1.3-5.9,0.7-5.9,3.7C552.5,499.5,555.1,501.6,557.9,500.5z"/>
		<path class="st12" d="M444.1,478.1c0.9-2.2,2.5-3,4.8-2.9c5.3,0,10.6,0.1,15.9,0c2.9-0.1,5.1,0.5,6.3,3.5c0.7,1.8,3,2.4,4.8,1.8
			c1.7-0.5,2.9-2.3,2.8-4.2c-0.1-2.3-1.8-3.9-4.5-3.9c-5.6,0-11.1,0-16.7,0l0,0c-5.7,0-11.4,0-17.1,0c-2.4,0-4.1,1.6-4.3,3.7
			c-0.2,1.8,1.1,3.8,2.9,4.4C441.1,481.1,443.1,480.3,444.1,478.1z"/>
		<path class="st12" d="M422,628.4c1.6,0,3,0,4.6,0c0-10.4,0-20.7,0-31.2c-1.5,0-3,0-4.6,0C422,607.7,422,618,422,628.4z"/>
		<path class="st12" d="M546.8,628.3c1.6,0,3,0,4.5,0c0-10.4,0-20.7,0-31.2c-1.5,0-2.9,0-4.5,0C546.8,607.7,546.8,618,546.8,628.3z"
			/>
		<path class="st12" d="M505.1,628.3c1.6,0,3,0,4.6,0c0-10.4,0-20.7,0-31.1c-1.6,0-3,0-4.6,0C505.1,607.6,505.1,617.9,505.1,628.3z"
			/>
		<path class="st12" d="M463.6,628.3c1.5,0,2.9,0,4.5,0c0-10.5,0-20.8,0-31.2c-1.6,0-3,0-4.5,0C463.6,607.6,463.6,617.9,463.6,628.3
			z"/>
		<path class="st12" d="M589.6,597.1c-0.4,0-0.8,0-1.4,0.1c0,1.4,0,2.7,0,4.1c1.4-1.4,2.8-2.8,4.3-4.2
			C591.5,597.1,590.5,597.1,589.6,597.1z"/>
		<path class="st15" d="M490.5,555.3c0.1,0,0.3,0,0.4,0c0.1,0,0.3,0,0.4,0c0.2,0,0.5,0,0.7,0c0.6,0,1.1,0,1.6-0.1
			c0.6,0,1.1-0.1,1.5-0.3c0.2-0.1,0.4-0.2,0.6-0.3c0.6-0.3,1.2-0.9,2-1.7c2.7-2.7,2.7-2.7,0.8-6.2c-0.8-1.4-1.6-1.8-3-0.9
			c-2.1,1.3-4.3,2.5-6.5,3.8c-1.4,0.9-2.2,3.1-1.6,4.7C487.9,555.7,489.4,555.1,490.5,555.3z"/>
		<path class="st15" d="M508.9,541.9c3.4-4.6,8.3-6.8,11.3-11.1c-3.8-0.1-7.5,0.6-11.2,1.2c-1.2,0.2-1.8,1.3-1.6,2.6
			C507.8,536.9,508.3,539.1,508.9,541.9z"/>
		<path class="st12" d="M425.4,588.5c-0.8-0.5-1.6-0.4-2.4,0.1c-1.5,1.1-1.1,2.6-1.1,4.2c1.6,0,3,0,4.7,0
			C426.7,591.1,427.1,589.5,425.4,588.5z"/>
		<path class="st12" d="M508.5,588.6c-0.8-0.5-1.6-0.5-2.4,0c-1.6,1.1-1.2,2.6-1.1,4.2c1.6,0,3.1,0,4.7,0
			C509.7,591.2,510.2,589.6,508.5,588.6z"/>
		<path class="st12" d="M592.8,592.8c-0.1-1.6,0.5-3.2-1.1-4.2c-0.8-0.5-1.7-0.5-2.5,0.1c-1.5,1.1-1,2.6-0.9,4.1
			C589.8,592.8,591.3,592.8,592.8,592.8z"/>
		<path class="st12" d="M550.1,588.6c-0.8-0.5-1.6-0.5-2.4,0c-1.6,1.1-1,2.7-1.1,4.2c1.6,0.1,3.1,0.2,4.6-0.1
			C551.3,591.2,551.7,589.6,550.1,588.6z"/>
		<path class="st12" d="M467,588.6c-0.8-0.5-1.7-0.5-2.5,0.1c-1.5,1.2-0.9,2.7-0.8,4.2c1.5,0,2.9,0,4.5,0
			C468.1,591.2,468.7,589.6,467,588.6z"/>
		<path class="st15" d="M489.7,529.2c-1.2,0.8-1.1,2.1,0.2,2.7c1.3,0.6,2.6,1.1,3.8,1.6c2.6-2.3,0.9-4.2-0.3-6.5
			C492.1,527.8,490.9,528.5,489.7,529.2z"/>
	</g>
	<g>
		<path class="st8" d="M167,147.6c1.2-2.5,3.2-3.6,6-3.3c1.5,0.1,3,0,4.5,0c2.9,0,5.2,1.2,6.6,3.8c1.1,2,2.7,2.9,5,2.8
			c3.9-0.2,6.7,1.4,8.2,5c0.8,1.9,2.2,2.8,4.4,2.9c2.9,0.1,5,1.5,6.3,4.1c1.1,2.1,2.1,4.2,3.1,6.4c0.3,0.7,0.7,1.2,1.6,1.1
			c3.7-0.4,6.3,1.3,8.3,4.3c2,3,4.3,5.7,6.3,8.6c1.2,1.6,2.6,2.4,4.6,2.3c1.5-0.1,3-0.1,4.4,0.3c2,0.6,3.5,1.9,4.6,3.6
			c2.1,3.1,5,2.9,8.1,2.6c1.1-0.1,1.9-0.9,2.6-1.6c4-4.1,8.1-8.1,12.1-12.1c1.8-1.8,3.9-2.7,6.5-2.7c3.9,0.1,7.8,0,11.7,0
			c1.3,0,2.3-0.3,3.4-1c8.6-5.2,5.3-4.3,15.5-4.3c9.8-0.1,19.7,0,29.5,0c3.8,0,5.7,1.9,5.7,5.6c0,21.1,0,42.1,0,63.2
			c0,2.4-0.4,2.8-2.7,2.8c-54.6,0-109.1,0-163.7,0c-1,0-1.9-0.1-2.6-1C167,209.9,167,178.7,167,147.6z M170.4,238.6
			c54.2,0,108.2,0,162.3,0c0-0.5,0.1-0.9,0.1-1.3c0-20.4,0-40.8,0-61.2c0-2-0.5-2.4-2.5-2.4c-10,0-19.9,0.2-29.9-0.1
			c-5-0.1-9.3,0.7-13.2,3.8c-1.5,1.2-3.4,1.6-5.4,1.6c-3.8-0.1-7.7,0-11.6,0c-1.7,0-3,0.5-4.1,1.7c-3.9,3.9-7.8,7.8-11.7,11.7
			c-4.7,4.7-11.3,4.7-15.6-0.3c-2.1-2.4-4.2-3.4-7.3-3.1c-2.9,0.2-5.2-1.1-6.9-3.5c-2.3-3.2-4.8-6.3-7-9.5c-1.1-1.5-2.5-2.2-4.3-2.2
			c-13.7,0-27.4,0-41.1,0c-0.6,0-1.2-0.2-1.8,0.3C170.4,195.4,170.4,216.9,170.4,238.6z M207.9,170.3c-1.2-2.4-2.2-4.5-3.3-6.5
			c-0.6-1.1-1.8-1.6-3.1-1.7c-3.4-0.1-5.8-1.7-7.2-4.8c-1-2.2-2.6-3.3-5.1-3.1c-3.6,0.2-6.3-1.2-8-4.4c-0.8-1.5-2.1-2.2-3.8-2.2
			c-1.6,0-3.3,0-4.9,0c-2,0-2.2,0.2-2.2,2.2c0,6.4,0,12.7,0,19.1c0,0.5-0.2,1,0.3,1.4C182.9,170.3,195.2,170.3,207.9,170.3z"/>
		<path class="st8" d="M284.2,73c6.7,3.8,13.3,7.7,20,11.5c2.1,1.2,3.2,3,3,5.4c-0.3,2.7-2.4,4.5-5.2,4.5c-0.8,0-1.3,0.2-1.6,1
			c-1.5,3.3-4.1,4.9-7.6,5.2c-3.3,0.3-5.2,1.8-6.9,4.7c-6.9,12.4-14.1,24.6-21.1,36.8c-0.9,1.6-2.1,3.1-1.7,5.4
			c1.4,0.8,3.1,1.8,4.7,2.7c3.1,1.8,3.9,5,2.1,8.1c-2.4,4.3-4.9,8.6-7.4,12.8c-3.4,5.8-9,8.2-15.3,9c-2.4,0.3-4.9,0.3-7.4,0.4
			c-2,0.1-3.7-0.7-4.6-2.3c-2.5-4.5-5-9-5.6-14.3c-0.4-3.6,0.1-7,1.9-10.2c2.5-4.5,5.1-9,7.7-13.4c1.7-2.9,4.8-3.7,7.8-2.1
			c1.7,0.9,3.3,1.9,4.9,2.8c1.9-0.7,2.7-2.4,3.7-4c7.5-13,15-26,22.6-39c0.7-1.3,0.9-2.4,0.3-3.7c-0.4-0.8-0.5-1.7-0.9-2.5
			c-1.4-3.3-1.3-6.4,0.8-9.3c0.3-0.4,0.5-0.7,0.2-1.3c-1.8-3.9-1.2-5.8,2.5-8c0.1,0,0.1-0.2,0.1-0.3C282.2,73,283.2,73,284.2,73z
			 M250.7,144.4c-1.7-1-3.4-2-5.1-2.9c-1.8-1-2.8-0.7-3.8,1.1c-2.5,4.2-4.9,8.4-7.3,12.7c-1.5,2.6-1.8,5.3-1.6,8.3
			c0.4,4.7,2.8,8.7,4.9,12.8c0.5,0.9,1.3,1.1,2.2,1.1c2.2-0.1,4.5-0.1,6.7-0.4c4.9-0.6,9.4-2.2,12.3-6.5c2.9-4.5,5.4-9.2,8-13.8
			c0.7-1.3,0.5-2.5-0.8-3.3c-1.8-1.1-3.6-2.1-5.4-3.1c-2.3,3.1-4.4,6.1-6.7,9.1c-1.7,2.3-4.2,2.9-6.3,1.6c-2.2-1.3-2.8-3.7-1.7-6.3
			C247.6,151.3,249.1,147.9,250.7,144.4z M260.4,143c6.8-11.7,13.4-23.2,20.1-34.8c-1.2-0.7-2.3-1.3-3.4-1.9
			c-6.7,11.7-13.4,23.2-20.1,34.8C258.2,141.8,259.2,142.3,260.4,143z M281.8,83.7c-2,2.2-2.3,4.4-1.2,7c0.4,0.9,0.7,1.9,1,3
			c0.3,1.3,1.2,2,2.2,2.8c2.4,1.8,4.9,2.2,7.6,1.1c0.5-0.2,1-0.2,1.4-0.3c2.7-0.2,4-2,4.9-4.3C292.4,89.9,287.1,86.8,281.8,83.7z
			 M301.8,91.2c1.1,0,1.8-0.5,2-1.4c0.3-1.2-0.4-1.9-1.3-2.4c-6.1-3.5-12.2-7-18.3-10.5c-1.4-0.8-2.5-0.7-3.1,0.5
			c-0.7,1.4,0.1,2.2,1.2,2.9c6,3.5,12,6.9,18,10.4C300.8,90.9,301.3,91.2,301.8,91.2z M259.5,146.4c-1.6-0.9-3.1-1.8-4.8-2.8
			c-1.9,4.2-3.7,8.3-5.5,12.3c-0.4,0.8-0.6,1.6,0.3,2.1c0.9,0.5,1.5-0.1,2-0.9C254.2,153.6,256.8,150,259.5,146.4z M281.5,98.9
			c-0.4,0.7-0.8,1.3-1.1,1.8c-1.6,2.9-1.6,2.9,1.5,4.4c0.1,0,0.2,0,0.4,0c0.9-1.4,1.8-2.7,2.4-4.4
			C283.6,100.1,282.7,99.5,281.5,98.9z"/>
		<path class="st18" d="M265,73c1.4,0.7,1.5,2,1.3,3.5c1.6,0.3,3.7-0.1,3.6,2.4c-0.1,2.1-1.8,2-3.5,2.1c-0.2,1.5,0,3.6-2.4,3.5
			c-1.9-0.1-2.1-1.8-2.1-3.4c-1.6-0.2-3.6-0.2-3.4-2.4c0.1-1.9,1.7-2.2,3.4-2c0-1.5,0.3-2.7,1.4-3.6C263.9,73,264.5,73,265,73z"/>
		<path class="st8" d="M226.7,159.5c0,1.1-0.4,2-1.1,2.9c-1.3,1.5-2.5,2.9-3.8,4.4c-2.4,2.7-8,1.4-8.9-2.1c-0.6-2-1-4.1-1.3-6.1
			c-0.4-2.4,1-4.2,3.4-4.6c0.9-0.2,1.8-0.1,2.6-0.4c4.1-1.4,6.3,1.3,8.5,4C226.6,158,226.7,158.8,226.7,159.5z M219.6,156.5
			c-1.2,0.2-2.5,0.4-3.9,0.6c-0.8,0.1-1,0.6-0.9,1.3c0.4,1.7,0.7,3.3,1.1,4.9c0.3,1,2.4,2,3.1,1.3c1.5-1.5,2.8-3.1,4.1-4.7
			c0.1-0.1,0.1-0.3,0.1-0.5C223.4,158.8,220.6,156.5,219.6,156.5z"/>
		<path class="st8" d="M205.9,143c0.5,0.1,0.9,0.2,1.3,0.3c2.1,0.7,4.2,5.3,3.4,7.3c-0.4,0.9-0.8,1.8-1.3,2.6
			c-0.9,1.3-2.1,1.9-3.7,1.4c-1.5-0.5-3.1-1.2-4.5-1.9c-1.8-0.9-2.5-4.2-1.2-5.9C201.4,144.7,203.8,143.9,205.9,143z M205.9,146.5
			c-0.9,0.5-1.9,1-2.8,1.6c-0.8,0.6-0.9,1.4,0.1,1.9s2,1.1,3.2,1.2C207.9,149.3,207.8,149,205.9,146.5z"/>
		<path class="st19" d="M298.3,162.4c-1.6-3.7-2.2-4.4-6.1-6c3.1-0.8,5.1-2.7,6-6.1c1,3.3,2.9,5.3,6,6.2
			C301.1,157.3,299.2,159.3,298.3,162.4z"/>
		<path class="st20" d="M191.8,131.8c0.8,2.3,2.1,3.6,4.2,4.1c-2,0.9-3.5,1.9-4.2,4.5c-0.7-2.5-2.1-3.7-4.4-4.4
			C189.7,135.3,191,134.1,191.8,131.8z"/>
		<path class="st19" d="M264.4,100.7c0,1.2-1,2.2-2.2,2.2c-1.1,0-2.2-1.1-2.2-2.2c0-1.3,1-2.3,2.3-2.3
			C263.6,98.5,264.5,99.4,264.4,100.7z"/>
		<path class="st21" d="M279.9,145.2c0-1.2,1-2.2,2.2-2.2c1.3,0,2.3,1,2.2,2.4c-0.1,1.2-1.1,2.2-2.3,2.1
			C280.8,147.4,279.8,146.4,279.9,145.2z"/>
		<path class="st8" d="M225.7,170.4c1.1,0,2.4,1.3,2.3,2.4c0,1-0.6,1.6-1.7,1.6c-0.9,0-2.2-1.3-2.2-2.3
			C224.2,171,224.8,170.4,225.7,170.4z"/>
		<path class="st16" d="M170.4,238.6c0-21.6,0-43.1,0-64.6c0.6-0.5,1.2-0.3,1.8-0.3c13.7,0,27.4,0,41.1,0c1.9,0,3.2,0.6,4.3,2.2
			c2.3,3.2,4.7,6.3,7,9.5c1.7,2.4,3.9,3.7,6.9,3.5s5.2,0.7,7.3,3.1c4.3,5.1,10.9,5.1,15.6,0.3c3.9-3.9,7.8-7.8,11.7-11.7
			c1.2-1.2,2.4-1.7,4.1-1.7c3.8,0.1,7.7,0,11.6,0c2,0,3.9-0.4,5.4-1.6c3.9-3.1,8.3-3.9,13.2-3.8c9.9,0.3,19.9,0.1,29.9,0.1
			c2,0,2.5,0.4,2.5,2.4c0,20.4,0,40.8,0,61.2c0,0.4,0,0.8-0.1,1.3C278.6,238.6,224.5,238.6,170.4,238.6z M236.3,212.9
			c0.3,0.5,0.5,0.9,0.7,1.3c0.5,0.6,1.1,1,1.9,0.6c0.7-0.3,1.3-1,1-1.7c-0.8-2,0.6-2.2,1.8-2.7c0.7-0.3,1.4-0.6,2.1-0.9
			c3.2-1.5,4.4-4.6,2.7-7.8c-2.4-4.6-6.1-7.3-11.4-7.3c-0.5,0-1-0.1-1.5-0.2c-3.5-0.5-6.7-2-10-3.4c-4.8-2-9.7-3.8-15-2.9
			c-4.9,0.8-9.7,2.5-14.2,4.7c-4.7,2.3-8.1,5.8-9.3,11.1c-0.4,1.7-1,3.2-1.8,4.8c-2,4-0.9,7.9,2.9,10.2c0.6,0.4,0.9,0.6,0.8,1.4
			c-0.3,2.6,0.5,4.9,2.4,6.7c5.9,5.5,12.7,7.9,20.7,6.2c4.8-1,9.6-1.3,14.5-0.5c6,1.1,11.8,0,17.3-2.7c1.7-0.9,2.5-2.3,2.3-4
			c-0.2-1.5-1.4-2.8-3.1-3.2c-0.8-0.2-1.6-0.2-2.4-0.2c-1-0.1-2-0.1-2.9-0.5c-0.1-1.1-0.2-2.2-1.5-2.4c-1.6-0.2-1.8,1.1-2,2.2
			c-0.3,0-0.4,0.1-0.6,0.1c-1.5-0.1-3.3,0.5-3.4-2c0-0.6-0.7-0.9-1.4-0.9c-0.7,0-1.2,0.3-1.5,0.9c-0.2,0.4-0.3,0.9-0.4,1.3
			c-4.2,0.4-11-2.3-15.4-4.8c0.7-0.2,1.4,0,2.1,0.1c5.7,1,11.4,1.6,17.1-0.4c0.7-0.3,1.2-0.1,1.6,0.6c0.4,0.7,1.1,1.2,1.9,0.8
			c0.9-0.4,1.3-1.2,1-2.2c-0.1-0.3-0.2-0.6-0.3-1C234,213.6,235.1,213.2,236.3,212.9z M309.9,207.7c4.5,3.8,8.6,4,11.4,0.3
			c2.8-3.6,2.2-8.3-2.6-11.1c0.4-3-0.6-5.6-2.9-7c-2.4-1.6-5-1.9-7.5-0.5c-2.6,1.4-4,3.8-3.6,6.7c0.3,1.9-0.5,2.5-1.9,3.2
			c-5.1,2.6-10.1,5.3-15.2,7.9c-2.1,1.1-2.7,2.9-1.5,4.4c0.9,1.2,2.1,2.3,3.8,2.3c0.6,0,0.9,0.3,1.2,0.7c1,1.4,2.4,1.6,3.9,0.9
			c0.8-0.4,1.6-0.8,2.3-1.2C301.5,212,305.7,209.8,309.9,207.7z M274.9,221.9c2.8,0,5.6,0,8.4,0c1.5,0,2.9,0,3.8-1.5
			c0.9-1.5,0-2.9-0.6-4.2c-0.3-0.6-0.7-1-1.3-1.2c-0.4-0.2-0.6-0.5-0.8-1c-0.7-2.5-1.3-3-4-3c-4.8,0-9.7,0-14.5,0
			c-1.1,0-1.7-0.2-2.1-1.4c-1.3-3.9-5.5-5.8-9.2-4.3c-3.9,1.6-5.6,6.1-3.7,9.7c0.6,1.1,0.5,1.8,0,2.8c-1.9,3.7-0.1,8.2,3.9,9.8
			c3.6,1.4,7.9-0.6,9.1-4.5c0.3-1.2,0.9-1.3,1.9-1.3C268.8,221.9,271.8,221.9,274.9,221.9z"/>
		<path class="st22" d="M207.9,170.3c-12.7,0-25,0-37.3,0c-0.4-0.4-0.3-1-0.3-1.4c0-6.4,0-12.7,0-19.1c0-1.9,0.2-2.2,2.2-2.2
			c1.6,0,3.3,0,4.9,0c1.7,0,3,0.7,3.8,2.2c1.7,3.2,4.4,4.6,8,4.4c2.4-0.2,4.1,0.9,5.1,3.1c1.4,3.1,3.8,4.7,7.2,4.8
			c1.3,0,2.4,0.6,3.1,1.7C205.7,165.9,206.7,168,207.9,170.3z"/>
		<path class="st23" d="M260.4,143c-1.2-0.7-2.2-1.3-3.4-1.9c6.7-11.6,13.4-23.1,20.1-34.8c1.1,0.6,2.1,1.2,3.4,1.9
			C273.8,119.8,267.2,131.3,260.4,143z"/>
		<path class="st20" d="M301.8,91.2c-0.5,0-1-0.3-1.4-0.6c-6-3.5-12-6.9-18-10.4c-1.2-0.7-2-1.5-1.2-2.9c0.6-1.1,1.7-1.3,3.1-0.5
			c6.1,3.5,12.2,7,18.3,10.5c0.9,0.5,1.6,1.2,1.3,2.4C303.6,90.7,302.9,91.2,301.8,91.2z"/>
		<path class="st24" d="M281.5,98.9c1.1,0.7,2.1,1.2,3.1,1.8c-0.5,1.7-1.5,3-2.4,4.4c-0.2,0-0.3,0-0.4,0c-3.1-1.4-3.1-1.4-1.5-4.4
			C280.7,100.1,281.1,99.6,281.5,98.9z"/>
		<path class="st22" d="M219.6,156.5c1,0,3.7,2.3,3.8,3c0,0.2,0,0.3-0.1,0.5c-1.4,1.6-2.7,3.2-4.1,4.7c-0.7,0.6-2.8-0.3-3.1-1.3
			c-0.4-1.6-0.8-3.3-1.1-4.9c-0.2-0.7,0.1-1.2,0.9-1.3C217.1,156.9,218.5,156.7,219.6,156.5z"/>
		<path class="st22" d="M205.9,146.5c1.9,2.5,1.9,2.8,0.5,4.8c-1.1-0.2-2.1-0.7-3.2-1.2c-1-0.5-0.9-1.3-0.1-1.9
			C204,147.5,205,147,205.9,146.5z"/>
		<path class="st8" d="M236.3,212.9c-1.2,0.3-2.3,0.7-3.3,1.4c0.1,0.4,0.2,0.7,0.3,1c0.3,1-0.1,1.7-1,2.2c-0.9,0.4-1.5-0.1-1.9-0.8
			c-0.4-0.7-0.9-0.9-1.6-0.6c-5.6,2-11.4,1.5-17.1,0.4c-0.7-0.1-1.4-0.3-2.1-0.1c4.4,2.6,11.2,5.3,15.4,4.8c0.1-0.4,0.2-0.9,0.4-1.3
			c0.3-0.6,0.8-0.9,1.5-0.9c0.7,0,1.4,0.3,1.4,0.9c0.1,2.5,2,1.9,3.4,2c0.2,0,0.3,0,0.6-0.1c0.3-1.1,0.5-2.4,2-2.2
			c1.3,0.2,1.4,1.3,1.5,2.4c0.9,0.4,1.9,0.5,2.9,0.5c0.8,0,1.7,0.1,2.4,0.2c1.8,0.4,2.9,1.6,3.1,3.2c0.2,1.7-0.6,3.1-2.3,4
			c-5.5,2.7-11.2,3.8-17.3,2.7c-4.9-0.9-9.7-0.5-14.5,0.5c-8,1.6-14.8-0.8-20.7-6.2c-1.9-1.8-2.7-4.1-2.4-6.7c0.1-0.8-0.2-1-0.8-1.4
			c-3.8-2.4-4.9-6.2-2.9-10.2c0.8-1.5,1.4-3.1,1.8-4.8c1.2-5.3,4.5-8.8,9.3-11.1c4.5-2.2,9.2-3.9,14.2-4.7c5.3-0.9,10.2,0.9,15,2.9
			c3.2,1.4,6.4,2.9,10,3.4c0.5,0.1,1,0.2,1.5,0.2c5.4,0,9,2.7,11.4,7.3c1.7,3.2,0.6,6.3-2.7,7.8c-0.7,0.3-1.4,0.6-2.1,0.9
			c-1.2,0.5-2.6,0.7-1.8,2.7c0.3,0.7-0.4,1.3-1,1.7c-0.8,0.4-1.4,0-1.9-0.6C236.7,213.8,236.6,213.4,236.3,212.9z M228.6,196.6
			c-3.3-1.3-6.5-2.7-9.7-3.9c-3-1.1-6.1-2-9.2-1.4c-5.8,1.1-11.4,2.7-16.4,6c-2.2,1.4-3.7,3.5-4.4,6c-0.7,2.5-1.5,4.9-2.7,7.2
			c-0.7,1.5-0.6,3,0.5,4.3c1,1.3,2.4,1.9,4.1,1.5c2.4-0.5,4.9-1,7.2-1.6c6.1-1.7,12.2-2.3,18.5-1c4,0.8,8.2,0.5,12.1-1.2
			c4.5-2,9-3.9,13.4-5.8c2.3-1,2.5-2.4,0.8-4.2c-1.5,3.4-3.5,4.4-7.2,3.6c-2-0.4-3.8-1.3-5.5-2.5
			C227.3,201.6,226.9,199.7,228.6,196.6z M241,226.6c-0.5-0.7-1-0.7-1.5-0.7c-3.1-0.3-6.2-0.6-9.4-0.7c-7.4-0.3-14.5-1.6-21.1-5.2
			c-1.6-0.9-3.4-1.5-5.1-2.3c-0.9-0.4-1.8-0.5-2.9-0.3c-2.9,0.7-5.8,1.3-8.7,2c-2.3,0.5-2.7,1.5-1.8,3.7c0.3,0.8,0.8,1.4,1.5,2
			c5.1,4.5,11,6.3,17.7,4.8c4.7-1,9.5-1.4,14.2-0.6c2.8,0.4,5.7,0.7,8.5,0.2C235.6,229,238.4,228.2,241,226.6z M236.9,203
			c1.1,0.1,1.8,0,2.3-0.6c0.9-1.2,0.3-2.8-1.2-3.5c-1.8-0.7-3.8-0.3-5.7-0.6c-0.5-0.1-1,0.3-1.2,0.9c-0.2,0.6,0.1,1,0.5,1.3
			C233.2,201.9,235.1,202.7,236.9,203z"/>
		<path class="st8" d="M309.9,207.7c-4.2,2.2-8.4,4.4-12.6,6.6c-0.8,0.4-1.5,0.8-2.3,1.2c-1.5,0.8-2.9,0.5-3.9-0.9
			c-0.3-0.4-0.6-0.7-1.2-0.7c-1.7,0-2.8-1.1-3.8-2.3c-1.2-1.5-0.5-3.3,1.5-4.4c5.1-2.7,10.1-5.3,15.2-7.9c1.4-0.7,2.2-1.3,1.9-3.2
			c-0.4-2.9,1-5.3,3.6-6.7c2.5-1.4,5.1-1,7.5,0.5c2.2,1.5,3.3,4.1,2.9,7c4.8,2.8,5.4,7.5,2.6,11.1
			C318.5,211.7,314.4,211.5,309.9,207.7z M293.6,212.4c4.8-2.5,9.5-5,14.2-7.4c2.3-1.2,3.5-1,5.3,0.9c1.2,1.2,2.5,1.8,4.2,1.2
			c1.6-0.6,2.3-1.8,2.4-3.4c0.1-1.8-0.8-2.9-2.3-3.6c-1.9-0.9-2.3-1.7-1.9-3.8c0.3-1.6-0.1-3-1.6-3.8c-1.4-0.8-2.8-1-4.2-0.1
			c-1.4,1-1.9,2.4-1.5,4c0.5,2.7,0.1,3.7-2.4,5c-4.9,2.6-9.8,5.1-14.7,7.7c-0.5,0.3-1.1,0.4-1.6,1.3
			C291.3,210.1,292.7,210.5,293.6,212.4z"/>
		<path class="st8" d="M274.9,221.9c-3,0-6.1,0-9.1,0c-1,0-1.5,0.1-1.9,1.3c-1.1,3.9-5.5,6-9.1,4.5c-4-1.6-5.8-6-3.9-9.8
			c0.5-1,0.6-1.8,0-2.8c-1.9-3.7-0.1-8.1,3.7-9.7c3.6-1.5,7.9,0.4,9.2,4.3c0.4,1.2,1,1.5,2.1,1.4c4.8-0.1,9.7,0,14.5,0
			c2.6,0,3.3,0.5,4,3c0.1,0.5,0.3,0.8,0.8,1c0.6,0.3,1,0.7,1.3,1.2c0.6,1.3,1.5,2.6,0.6,4.2c-0.9,1.4-2.3,1.5-3.8,1.5
			C280.5,221.8,277.7,221.9,274.9,221.9z M280.9,214.3c-5.4,0-10.6,0-15.9,0c-2.5,0-3.5-0.7-4.1-3.1c-0.5-1.7-1.5-2.8-3.3-3
			c-1.7-0.2-2.9,0.7-3.7,2c-0.9,1.5-0.6,3,0.5,4.3s1.1,2.7,0,4s-1.4,2.8-0.5,4.3c0.8,1.3,2,2.3,3.7,2c1.8-0.2,2.8-1.3,3.3-3
			c0.7-2.4,1.7-3.2,4.3-3.2c5.7,0,11.3,0,17,0c0.5,0,1,0,1.8,0C281.3,216.3,281.3,216.3,280.9,214.3z"/>
		<path class="st25" d="M228.6,196.6c-1.7,3.1-1.2,5,1.5,7c1.7,1.2,3.5,2.1,5.5,2.5c3.7,0.8,5.7-0.2,7.2-3.6
			c1.7,1.9,1.5,3.2-0.8,4.2c-4.5,1.9-9,3.8-13.4,5.8c-3.9,1.7-8.1,2.1-12.1,1.2c-6.3-1.3-12.4-0.7-18.5,1c-2.4,0.7-4.8,1.1-7.2,1.6
			c-1.7,0.4-3.1-0.2-4.1-1.5c-1-1.3-1.2-2.9-0.5-4.3c1.2-2.3,2-4.7,2.7-7.2c0.7-2.5,2.2-4.6,4.4-6c5-3.3,10.6-5,16.4-6
			c3.1-0.6,6.2,0.3,9.2,1.4C222,193.9,225.2,195.2,228.6,196.6z M208.5,208.9c2.7-0.2,5.8-0.4,8.9-0.9c3-0.5,4.4-3.9,2.4-6.2
			c-2.8-3.2-6.1-5.5-10.5-5.9c-4.2-0.4-7.5,2-7.7,5.4C201.5,206.7,203.4,209,208.5,208.9z"/>
		<path class="st26" d="M241,226.6c-2.6,1.6-5.5,2.4-8.4,2.9c-2.9,0.5-5.7,0.2-8.5-0.2c-4.8-0.8-9.5-0.4-14.2,0.6
			c-6.7,1.5-12.6-0.4-17.7-4.8c-0.6-0.5-1.1-1.2-1.5-2c-0.9-2.2-0.5-3.2,1.8-3.7c2.9-0.7,5.8-1.3,8.7-2c1-0.2,1.9-0.2,2.9,0.3
			c1.7,0.8,3.5,1.4,5.1,2.3c6.6,3.6,13.7,4.9,21.1,5.2c3.1,0.1,6.2,0.5,9.4,0.7C240,225.9,240.5,225.9,241,226.6z"/>
		<path class="st16" d="M236.9,203c-1.8-0.3-3.7-1.1-5.4-2.6c-0.4-0.3-0.6-0.7-0.5-1.3c0.2-0.6,0.7-1,1.2-0.9
			c1.9,0.3,3.8-0.1,5.7,0.6c1.5,0.6,2.1,2.3,1.2,3.5C238.7,203,238,203.1,236.9,203z"/>
		<path class="st26" d="M293.6,212.4c-0.8-1.9-2.3-2.4-4.3-2c0.5-0.9,1.1-1,1.6-1.3c4.9-2.6,9.8-5.1,14.7-7.7c2.5-1.3,3-2.3,2.4-5
			c-0.3-1.7,0.1-3.1,1.5-4c1.4-0.9,2.8-0.8,4.2,0.1c1.4,0.9,1.8,2.2,1.6,3.8c-0.4,2.1,0,2.9,1.9,3.8c1.5,0.7,2.4,1.8,2.3,3.6
			c-0.1,1.6-0.8,2.8-2.4,3.4c-1.7,0.6-3,0.1-4.2-1.2c-1.8-1.9-3-2.1-5.3-0.9C303,207.5,298.4,209.9,293.6,212.4z"/>
		<path class="st26" d="M280.9,214.3c0.4,2,0.4,2,3,4.2c-0.7,0-1.3,0-1.8,0c-5.7,0-11.3,0-17,0c-2.6,0-3.6,0.7-4.3,3.2
			c-0.5,1.7-1.5,2.8-3.3,3c-1.7,0.2-2.9-0.7-3.7-2c-0.9-1.5-0.6-3,0.5-4.3c1.1-1.3,1.1-2.7,0-4c-1.1-1.3-1.4-2.8-0.5-4.3
			c0.8-1.3,2-2.2,3.7-2c1.8,0.2,2.8,1.3,3.3,3c0.7,2.4,1.7,3.1,4.1,3.1C270.3,214.3,275.6,214.3,280.9,214.3z"/>
		<path class="st8" d="M208.5,208.9c-5.1,0.1-7-2.2-6.8-7.6c0.1-3.4,3.5-5.8,7.7-5.4c4.4,0.4,7.7,2.8,10.5,5.9
			c2,2.3,0.6,5.7-2.4,6.2C214.3,208.5,211.2,208.8,208.5,208.9z M217.3,204.6c-0.1-0.4-0.1-0.7-0.2-0.8c-2-2.1-4.2-3.9-7.1-4.4
			c-4-0.7-5.5,0.9-4.7,4.7c0.2,1,0.7,1.6,1.8,1.6C210.4,205.6,213.8,205.3,217.3,204.6z"/>
		<path class="st16" d="M217.3,204.6c-3.5,0.7-6.9,0.9-10.2,1c-1.1,0-1.5-0.6-1.8-1.6c-0.8-3.9,0.7-5.4,4.7-4.7
			c3,0.5,5.1,2.3,7.1,4.4C217.2,203.9,217.2,204.2,217.3,204.6z"/>
	</g>
</g>
</svg>
